<?xml version="1.0" encoding="utf-8"?>
<!-- Generator: Adobe Illustrator 22.0.1, SVG Export Plug-In . SVG Version: 6.00 Build 0)  -->
<svg version="1.1"
	 id="svg2" xmlns:cc="http://creativecommons.org/ns#" xmlns:dc="http://purl.org/dc/elements/1.1/" xmlns:inkscape="http://www.inkscape.org/namespaces/inkscape" xmlns:rdf="http://www.w3.org/1999/02/22-rdf-syntax-ns#" xmlns:svg="http://www.w3.org/2000/svg"
	 xmlns="http://www.w3.org/2000/svg" xmlns:xlink="http://www.w3.org/1999/xlink" x="0px" y="0px" viewBox="0 0 56.3 56.3"
	 style="enable-background:new 0 0 56.3 56.3;" xml:space="preserve">
<style type="text/css">
	.st0{clip-path:url(#SVGID_2_);fill:#EF6C00;}
	.st1{clip-path:url(#SVGID_2_);fill:#525252;}
	.st2{clip-path:url(#SVGID_2_);fill:#E6E6E6;}
</style>
<g>
	<defs>
		<polyline id="SVGID_1_" points="0,56.3 0,0 56.3,0 56.3,56.3 0,56.3 		"/>
	</defs>
	<clipPath id="SVGID_2_">
		<use xlink:href="#SVGID_1_"  style="overflow:visible;"/>
	</clipPath>
	<path id="path26" class="st0" d="M11.7,48.7V7.5c0-1.1,0.9-1.9,1.9-1.9h16.7l14.3,14.3v28.8c0,1.1-0.9,1.9-1.9,1.9H13.6
		C12.5,50.6,11.7,49.8,11.7,48.7z"/>
	<path id="path32" class="st1" d="M30.3,5.6l14.3,14.3H32.2c-1.1,0-1.9-0.9-1.9-1.9V5.6z"/>
	<path id="path38" class="st2" d="M22,43.8l0.4,0.7c-0.6,0.7-1.4,1-2.5,1c-1,0-1.9-0.3-2.5-1c-0.7-0.7-1-1.5-1-2.6s0.3-1.9,1-2.6
		c0.7-0.7,1.5-1,2.5-1c1,0,1.8,0.3,2.4,0.9L22,40.1c-0.2-0.2-0.4-0.4-0.8-0.6c-0.4-0.2-0.8-0.3-1.2-0.3c-0.8,0-1.4,0.2-1.8,0.7
		c-0.5,0.5-0.7,1.1-0.7,1.9c0,0.8,0.2,1.4,0.7,1.9c0.5,0.5,1.1,0.7,1.8,0.7C20.8,44.7,21.5,44.4,22,43.8z"/>
	<path id="path44" class="st2" d="M27.7,43.5c0,0.6-0.2,1.1-0.7,1.5c-0.4,0.4-1,0.5-1.7,0.5c-0.3,0-0.5,0-0.8-0.1
		c-0.2-0.1-0.5-0.2-0.7-0.3c-0.2-0.1-0.3-0.3-0.4-0.4c-0.1-0.1-0.2-0.2-0.3-0.4l0.6-0.6c0.2,0.3,0.5,0.5,0.8,0.7
		c0.3,0.2,0.6,0.3,1,0.3c0.4,0,0.7-0.1,1-0.3c0.3-0.2,0.4-0.5,0.4-0.8c0-0.2,0-0.3-0.1-0.4c-0.1-0.1-0.2-0.2-0.3-0.3
		c-0.1-0.1-0.3-0.2-0.3-0.2c-0.1,0-0.2-0.1-0.3-0.1c-0.5-0.2-0.9-0.4-1.1-0.5c-0.3-0.1-0.5-0.3-0.7-0.5c-0.3-0.3-0.4-0.7-0.4-1.2
		c0-0.5,0.2-1,0.6-1.3c0.4-0.3,0.9-0.5,1.6-0.5c0.8,0,1.4,0.3,2,0.9L27,40c-0.5-0.5-1-0.7-1.5-0.7c-0.4,0-0.6,0.1-0.9,0.3
		c-0.2,0.2-0.3,0.4-0.3,0.7c0,0.2,0,0.3,0.1,0.4c0,0.1,0.1,0.2,0.2,0.3c0.1,0.1,0.2,0.1,0.3,0.2c0.1,0,0.2,0.1,0.3,0.1l1.3,0.5
		c0.3,0.2,0.6,0.3,0.8,0.6C27.5,42.7,27.6,43.1,27.7,43.5z"/>
	<path id="path50" class="st2" d="M33,43.5c0,0.6-0.2,1.1-0.7,1.5c-0.4,0.4-1,0.5-1.7,0.5c-0.3,0-0.5,0-0.8-0.1
		c-0.2-0.1-0.5-0.2-0.7-0.3c-0.2-0.1-0.3-0.3-0.4-0.4c-0.1-0.1-0.2-0.2-0.3-0.4l0.6-0.6c0.2,0.3,0.5,0.5,0.8,0.7
		c0.3,0.2,0.6,0.3,1,0.3c0.4,0,0.7-0.1,1-0.3c0.3-0.2,0.4-0.5,0.4-0.8c0-0.2,0-0.3-0.1-0.4c-0.1-0.1-0.2-0.2-0.3-0.3
		c-0.1-0.1-0.3-0.2-0.3-0.2c-0.1,0-0.2-0.1-0.3-0.1c-0.5-0.2-0.9-0.4-1.1-0.5c-0.3-0.1-0.5-0.3-0.7-0.5c-0.3-0.3-0.4-0.7-0.4-1.2
		c0-0.5,0.2-1,0.6-1.3c0.4-0.3,0.9-0.5,1.6-0.5c0.8,0,1.4,0.3,2,0.9L32.3,40c-0.5-0.5-1-0.7-1.5-0.7c-0.4,0-0.6,0.1-0.9,0.3
		c-0.2,0.2-0.3,0.4-0.3,0.7c0,0.2,0,0.3,0.1,0.4c0,0.1,0.1,0.2,0.2,0.3c0.1,0.1,0.2,0.1,0.3,0.2c0.1,0,0.2,0.1,0.3,0.1l1.3,0.5
		c0.3,0.2,0.6,0.3,0.8,0.6C32.8,42.7,33,43.1,33,43.5z"/>
</g>
</svg>
