<?xml version="1.0" encoding="utf-8"?>
<!-- Generator: Adobe Illustrator 22.0.1, SVG Export Plug-In . SVG Version: 6.00 Build 0)  -->
<svg version="1.1" id="Layer_1" xmlns="http://www.w3.org/2000/svg" xmlns:xlink="http://www.w3.org/1999/xlink" x="0px" y="0px"
	 viewBox="0 0 24 24" style="enable-background:new 0 0 24 24;" xml:space="preserve">
<style type="text/css">
	.st0{fill:#EF6C00;}
</style>
<g>
	<path class="st0" d="M2.7,4c0,0.8,0.1,1.6,0.2,2.4C3,7.3,3.1,8.1,3.1,8.9c0,1-0.2,2.1-2.3,2.1v2c2.1,0,2.3,1.3,2.3,2.1
		c0,0.8-0.1,1.6-0.2,2.4c-0.1,0.8-0.2,1.7-0.2,2.4c0,3,1.9,4.1,4.5,4.1H8v-2.1H7.5c-1.5,0-2.1-0.9-2.1-2.4c0-0.6,0.1-1.2,0.2-1.9
		c0.1-0.7,0.2-1.4,0.2-2.2c0-2.1-0.9-3-2.4-3.4v-0.1c1.5-0.4,2.4-1.3,2.4-3.4c0-0.8-0.1-1.5-0.2-2.2C5.5,5.7,5.4,5.1,5.4,4.5
		c0-1.5,0.5-2.3,2.1-2.3H8V0H7.2C4.5,0,2.7,1.2,2.7,4z"/>
	<path class="st0" d="M20.9,8.9c0-0.8,0.1-1.6,0.2-2.4c0.1-0.8,0.2-1.7,0.2-2.4c0-2.8-1.8-4-4.5-4H16v2.2h0.5c1.5,0,2.1,0.9,2.1,2.3
		c0,0.6-0.1,1.2-0.2,1.9c-0.1,0.7-0.2,1.4-0.2,2.2c0,2.1,0.9,3,2.4,3.4V12c-1.5,0.4-2.4,1.3-2.4,3.4c0,0.8,0.1,1.5,0.2,2.2
		c0.1,0.7,0.2,1.3,0.2,1.9c0,1.5-0.6,2.3-2.1,2.4H16V24h0.9c2.6,0,4.5-1.1,4.5-4.1c0-0.8-0.1-1.6-0.2-2.4c-0.1-0.8-0.2-1.6-0.2-2.4
		c0-0.9,0.3-2.1,2.3-2.1v-2C21.2,11,20.9,9.8,20.9,8.9z"/>
</g>
</svg>
